<svg width="16" height="16" viewBox="0 0 16 16" fill="none" xmlns="http://www.w3.org/2000/svg">
<g clip-path="url(#clip0_40_2856)">
<path d="M7.99967 1.3335C5.41967 1.3335 3.33301 3.42016 3.33301 6.00016C3.33301 7.16016 3.66634 8.24683 4.27301 9.22683C4.90634 10.2535 5.73967 11.1335 6.37967 12.1602C6.69301 12.6602 6.91967 13.1268 7.15967 13.6668C7.33301 14.0335 7.47301 14.6668 7.99967 14.6668C8.52634 14.6668 8.66634 14.0335 8.83301 13.6668C9.07967 13.1268 9.29967 12.6602 9.61301 12.1602C10.253 11.1402 11.0863 10.2602 11.7197 9.22683C12.333 8.24683 12.6663 7.16016 12.6663 6.00016C12.6663 3.42016 10.5797 1.3335 7.99967 1.3335ZM7.99967 7.8335C7.07967 7.8335 6.33301 7.08683 6.33301 6.16683C6.33301 5.24683 7.07967 4.50016 7.99967 4.50016C8.91967 4.50016 9.66634 5.24683 9.66634 6.16683C9.66634 7.08683 8.91967 7.8335 7.99967 7.8335Z" fill="#4285FA"/>
</g>
<defs>
<clipPath id="clip0_40_2856">
<rect width="16" height="16" fill="white"/>
</clipPath>
</defs>
</svg>
